<?xml version="1.0" standalone="no"?><!DOCTYPE svg PUBLIC "-//W3C//DTD SVG 1.1//EN" "http://www.w3.org/Graphics/SVG/1.1/DTD/svg11.dtd"><svg t="1762481793569" class="icon" viewBox="0 0 1024 1024" version="1.1" xmlns="http://www.w3.org/2000/svg" p-id="24681" xmlns:xlink="http://www.w3.org/1999/xlink" width="200" height="200"><path d="M 606.7 108.8 c -41.2 -19.3 -86.5 -29 -135.8 -29.1 c -72.7 0.1 -136.7 21.1 -192 63 c -12.5 9.4 -24.5 20 -36.2 31.6 c -63 63 -94.4 139 -94.4 228.2 c 0 17.9 1.2 35.3 3.7 52.2 c 10.2 66.9 40.4 125.5 90.7 175.8 c 37.3 37.6 79.5 64 126.3 79.2 c 31.9 10.3 65.8 15.5 101.9 15.5 c 60.4 0 114.8 -14.6 163.4 -43.8 l 204.3 255.3 c 3.7 4.4 8.3 6.9 13.9 7.5 c 5.7 0.7 10.8 -0.7 15.2 -4.4 c 4.6 -3.6 7.2 -8.2 7.8 -13.8 c 0.6 -5.7 -0.9 -10.8 -4.6 -15.2 L 668.6 657.9 c 10.3 -8.3 20.5 -17.5 30.5 -27.4 c 62.9 -63 94.4 -138.9 94.4 -228 c 0 -9 -0.4 -17.7 -0.9 -26.4 c -5.7 -77.9 -37 -145.2 -93.5 -201.8 c -28.2 -28.1 -59 -50 -92.4 -65.5 Z m -13.2 28.1 c 1.3 0.6 2.6 1.2 3.7 1.8 c 2.7 5 5.2 10.1 7.5 15.2 c 15.7 37 17.7 75.4 6 115.1 c -13.6 46.1 -41.4 80.5 -83.5 103.3 c -4.5 2.5 -9 4.9 -13.5 7 c -7.2 3 -14.5 5.6 -21.5 7.7 c -1.8 0.6 -3.5 1.1 -5.2 1.4 c 3.6 -14.9 5.5 -30.6 5.7 -47.1 v -2.4 c 0.2 -48.5 -15.2 -90.6 -46.3 -126.2 c -3.2 -3.9 -6.7 -7.7 -10.4 -11.3 c -19.5 -19.6 -41.1 -34.1 -64.7 -43.5 c -13.4 -5.3 -27.4 -9.1 -42.1 -11.1 c 42.3 -24 89.5 -36 141.7 -36 c 44.5 0 85.3 8.7 122.6 26.1 Z m -172.1 79.2 c 3.6 3.7 7.1 7.3 10.3 11.2 c 27 31.6 40.5 68.9 40.3 111.6 c 0.2 15.4 -1.5 30.1 -4.9 44.1 c -12.2 -11 -26.1 -20.5 -41.4 -28.5 c -47.6 -25 -97 -29.3 -148.2 -13.2 c -28.8 9.2 -53.5 23.3 -74 42.2 c -8.8 8.3 -16.9 17.4 -24.1 27.4 v -8.4 c 0 -80.5 28.4 -149.3 85.1 -206.2 c 10.7 -10.6 21.8 -20.2 33.1 -28.9 c 1.1 -0.7 2.2 -1.5 3.1 -2.2 c 47.1 0.5 87.3 17.5 120.7 50.9 Z m -68.5 137.6 c 21.5 2.1 42.6 8.5 63.3 19.2 c 13.4 6.9 25.4 15.1 36 24.5 c -1.8 0.8 -3.5 1.5 -5.2 2.3 c -13.5 5.3 -26.5 12.3 -39.1 21 c -44.2 30.3 -71.2 71.8 -80.9 124.6 c -8.1 42.8 -2.7 82.9 16.1 120.3 c -24 -11.9 -46.6 -27.4 -67.6 -46.6 c -3.7 -3.3 -7.3 -6.8 -11 -10.4 c -45.2 -45.4 -72.5 -98.3 -81.7 -158.6 c -0.2 -1.3 -0.4 -2.7 -0.6 -4 c 5.6 -10.6 11.9 -20.2 19 -29.1 c 20.9 -26.4 48.5 -45 82.6 -55.7 c 23.4 -7.4 46.4 -9.9 69.1 -7.5 Z m 277.7 -78.6 c 5 -17.1 7.8 -34 8.3 -50.7 c 0.7 -23.2 -2.9 -46 -11.2 -68.5 c 17.3 11.4 33.7 24.8 49.2 40.4 c 3.7 3.6 7.2 7.3 10.7 11.1 c 44.5 48.8 69.1 105.6 73.9 170.7 c 0.2 1.6 0.3 2.9 0.3 4.3 c -24.9 38.8 -60.1 63.5 -105.3 74.3 c -46.6 10.9 -90.3 3.8 -131 -21.3 c -3.2 -2 -6.3 -4 -9.1 -6.1 c -9.3 -6.3 -17.5 -13.2 -24.8 -20.7 c 6.1 -1.8 12.4 -3.7 18.7 -5.8 c 9 -3.4 18 -7.5 27.1 -12.3 c 47 -25.6 78.1 -64 93.2 -115.4 Z m -116 178.1 c 33.4 20.3 68.4 30.1 105 29.3 c 13.6 -0.5 27.5 -2.5 41.5 -5.7 c 41.3 -9.8 74.9 -29.8 101 -60.1 c -0.2 5.1 -0.5 10.3 -0.9 15.5 c -1.1 11 -2.6 21.6 -4.6 32 c -11.1 54.5 -37.6 102.6 -79.7 144.4 c -10.2 10.3 -20.8 19.8 -31.9 28.3 h -0.3 c -0.2 0.1 -0.4 0.3 -0.6 0.5 c -3.5 -0.4 -6.7 0.1 -9.8 1.5 c -38.3 -2.2 -72.1 -15.5 -101 -40 c -4.1 -3.5 -7.9 -7.2 -11.8 -11 c -29 -29.4 -45.3 -63.8 -49.2 -103.3 c -0.6 -6.3 -0.8 -12.8 -0.8 -19.3 c 0 -8 0.4 -16 1.4 -23.6 c 0.7 -6.4 1.8 -12.5 3.4 -18.7 c 11.2 11.3 23.9 21.4 38.3 30.2 Z m -58.4 -35.1 c -0.7 3.1 -1.5 6.2 -2 9.5 c -1.6 8.2 -2.7 16.7 -3.2 25.3 c -0.2 4 -0.3 8 -0.3 12.1 v 0.3 c -0.2 53.6 18.5 99.3 56.2 137.3 c 3.8 3.8 7.7 7.6 11.8 11.2 c 27.8 24 59.4 38.6 94.9 43.7 c -6.5 3.9 -13.2 7.4 -20.1 10.7 c -37.3 17.2 -78.1 25.9 -122.6 25.9 c -30.2 0 -58.7 -3.9 -85.5 -11.8 c -2.3 -0.8 -4.6 -1.6 -6.9 -2.3 c -1.1 -0.4 -2.4 -0.8 -3.8 -1.1 v -0.4 c -17 -24.7 -27 -50.8 -29.6 -78.5 c -1.7 -16.5 -0.9 -33.5 2.3 -51 c 8.6 -47.1 32.7 -84.2 72.3 -111.3 c 11.8 -8 24 -14.6 36.5 -19.6 Z" fill="#626161" p-id="24682"></path><path d="M 604.7 153.9 c -34.6 -14.4 -72 -21.6 -112.2 -21.6 c -44 0 -84.3 8.6 -121.2 25.6 c 23.6 9.4 45.2 23.9 64.7 43.5 c 3.7 3.6 7.2 7.4 10.4 11.3 c 3.8 3.2 7.6 6.6 11.2 10.3 c 38 37.9 56.9 83.8 56.7 137.5 c 0 6.4 -0.2 12.6 -0.6 18.8 c 4.5 -2.1 9 -4.5 13.5 -7 c 42.1 -22.8 69.9 -57.2 83.5 -103.3 c 11.7 -39.7 9.7 -78.1 -6 -115.1 Z" fill="#979fcf" p-id="24683"></path><path d="M 467.1 383 c 3.4 -14 5.1 -28.7 4.9 -44.1 c 0.2 -42.7 -13.3 -80 -40.3 -111.6 c -31 -26.5 -67.5 -40 -109.3 -40.5 c -1 0.7 -2 1.5 -3.2 2.2 c -11.3 8.7 -22.3 18.3 -33.1 28.8 c -47 47.2 -74.6 102.5 -82.6 165.7 c 20.5 -18.9 45.2 -33 74 -42.2 c 51.2 -16.1 100.6 -11.8 148.2 13.2 c 15.3 8 29.2 17.5 41.4 28.5 Z" fill="#eb9fab" p-id="24684"></path><path d="M 203.8 467.6 c 0.2 1.3 0.4 2.7 0.6 4.1 c 8.4 55.4 32.1 104.5 71.1 147.3 c 21 19.2 43.6 34.7 67.6 46.6 c -18.8 -37.4 -24.2 -77.5 -16.1 -120.3 c 9.7 -52.8 36.7 -94.3 80.9 -124.6 c 12.6 -8.7 25.6 -15.7 39.1 -21 c -3.1 -1.9 -6.2 -3.7 -9.3 -5.2 c -42.5 -22.2 -86.7 -26.2 -132.3 -11.8 s -79.5 42.7 -101.6 84.9 Z" fill="#979fcf" p-id="24685"></path><path d="M 516.4 429.3 c 2.8 2.1 5.9 4.1 9.1 6.1 c 40.7 25.1 84.4 32.2 131 21.3 c 45.2 -10.8 80.4 -35.5 105.3 -74.3 c 0 -1.4 -0.1 -2.7 -0.3 -4.3 c -4.8 -65.1 -29.4 -121.9 -73.9 -170.7 c -12.3 -11.3 -25 -21.2 -38.3 -29.9 c 14 38.4 14.9 78.1 2.8 119.2 C 637 348.1 606 386.5 558.9 412 c -14.2 7.5 -28.4 13.3 -42.5 17.3 Z" fill="#eb9fab" p-id="24686"></path><path d="M 497.9 444.6 c -3.2 13.4 -4.9 27.6 -4.9 42.3 c -0.1 43 13.2 80.3 40.3 112 c 28.9 24.5 62.7 37.8 101 40 c 3.1 -1.4 6.3 -1.9 9.8 -1.5 c 0.2 -0.2 0.4 -0.4 0.6 -0.5 h 0.3 c 11.1 -8.5 21.7 -18 31.9 -28.3 c 42.1 -41.8 68.6 -89.9 79.7 -144.4 c -21.1 16.1 -45.7 27.5 -74 34.2 c -51.9 12.3 -100.7 4.4 -146.4 -23.6 c -14.4 -8.9 -27.2 -18.9 -38.3 -30.2 Z" fill="#979fcf" p-id="24687"></path><path d="M 450.7 465 c 0 -4.1 0.1 -8.1 0.3 -12.1 c -3.3 2.1 -6.5 4.3 -9.8 6.4 c -39.5 27 -63.5 64.1 -72.2 111.4 c -7.5 39.8 -2 77 16.4 111.6 c 26.8 7.9 55.3 11.8 85.5 11.8 c 44.5 0 85.3 -8.7 122.6 -25.9 c -23.9 -9.6 -45.5 -24.3 -65.1 -44 c -3.4 -3.5 -6.7 -7 -9.7 -10.4 c -4.1 -3.6 -8 -7.4 -11.8 -11.2 c -37.7 -38 -56.4 -83.7 -56.2 -137.3 v -0.3 Z" fill="#eb9fab" p-id="24688"></path></svg>